<?xml version="1.0" standalone="no"?><!DOCTYPE svg PUBLIC "-//W3C//DTD SVG 1.1//EN" "http://www.w3.org/Graphics/SVG/1.1/DTD/svg11.dtd"><svg t="1741573817928" class="icon" viewBox="0 0 1024 1024" version="1.1" xmlns="http://www.w3.org/2000/svg" p-id="100838" xmlns:xlink="http://www.w3.org/1999/xlink" width="16" height="16"><path d="M71.55 516.808C68.833 269.57 263.987 66.976 507.413 64.311c243.434-2.669 442.969 195.604 445.674 442.85 2.709 247.242-192.437 449.832-435.871 452.489C273.789 962.318 74.254 764.058 71.55 516.808" fill="#77B4BE" p-id="100839"></path><path d="M512.324 511.98m-448.112 0a448.112 448.112 0 1 0 896.224 0 448.112 448.112 0 1 0-896.224 0Z" fill="#EA7570" p-id="100840"></path><path d="M512.32 511.98m-349.216 0a349.216 349.216 0 1 0 698.432 0 349.216 349.216 0 1 0-698.432 0Z" fill="#EEEEF0" p-id="100841"></path><path d="M512.32 511.98m-230.234 0a230.234 230.234 0 1 0 460.468 0 230.234 230.234 0 1 0-460.468 0Z" fill="#EA7570" p-id="100842"></path><path d="M512.32 511.98m-105.077 0a105.077 105.077 0 1 0 210.154 0 105.077 105.077 0 1 0-210.154 0Z" fill="#EEEEF0" p-id="100843"></path><path d="M863.349 259.887l-74.809 73.618a18.503 18.503 0 0 1-18.809 4.366l-45.815-15.224-13.961-48.042a18.505 18.505 0 0 1 5.162-18.709l74.713-69.531 8.381 65.847 65.138 7.675z" fill="#F0C418" p-id="100844"></path><path d="M789.835 186.364l-74.717 69.539a18.512 18.512 0 0 0-5.166 18.701l13.515 46.488 74.092-74.084-7.724-60.644z" fill="#77B4BE" p-id="100845"></path><path d="M798.223 252.215l-0.665-5.206-74.092 74.084 0.45 1.561 45.815 15.216c6.6 2.195 13.862 0.51 18.813-4.366l74.801-73.618-65.122-7.671z" fill="#82BDD8" p-id="100846"></path><path d="M533.734 502.468v9.95H519.98c-0.191 1.083-0.386 2.167-0.414 3.282a22.517 22.517 0 0 0 6.365 16.244l296.526 304.931 18.614-18.367-307.337-316.04z" fill="#18142D" p-id="100847"></path><path d="M843.963 215.816a4.49 4.49 0 0 1 1.314 3.195 4.48 4.48 0 0 1-1.342 3.187L529.711 531.327a4.495 4.495 0 0 1-6.329-0.028l-5.811-5.808a9.855 9.855 0 0 1 0.056-14.001L827.994 206.149a4.492 4.492 0 0 1 6.333 0.028l9.636 9.639z" fill="#E0DDDE" p-id="100848"></path><path d="M834.327 206.185a4.491 4.491 0 0 0-6.329-0.028L517.626 511.49a9.91 9.91 0 0 0-2.944 6.983 9.827 9.827 0 0 0 2.892 7.014l3.673 3.673L839.274 211.128l-4.947-4.943z" fill="#374552" p-id="100849"></path><path d="M839.27 211.124L521.243 529.156l2.135 2.139a4.507 4.507 0 0 0 6.333 0.028l314.22-309.13c0.856-0.844 1.342-1.992 1.342-3.187s-0.466-2.35-1.318-3.199l-4.685-4.683z" fill="#374552" p-id="100850"></path></svg>