<?xml version="1.0" standalone="no"?><!DOCTYPE svg PUBLIC "-//W3C//DTD SVG 1.1//EN" "http://www.w3.org/Graphics/SVG/1.1/DTD/svg11.dtd"><svg t="1741573703825" class="icon" viewBox="0 0 1024 1024" version="1.1" xmlns="http://www.w3.org/2000/svg" p-id="94160" xmlns:xlink="http://www.w3.org/1999/xlink" width="16" height="16"><path d="M837.84 199.64c171.628 171.632 171.628 449.896 0 621.528s-449.904 171.636-621.536 0c-171.636-171.628-171.636-449.896 0-621.528 171.632-171.632 449.9-171.632 621.532 0" fill="#F26A6A" p-id="94161"></path><path d="M516.42 184.308c197.072-1.868 334.264 135.208 332.26 332.148 1.932 196.932-135.26 334.088-332.26 332.216-197.008 2.08-334.04-135.068-332.108-332.216-2.008-197.144 135.028-334.224 332.108-332.148z" fill="#FFFF6E" p-id="94162"></path><path d="M516.492 62.012c-280.032-4.22-458.696 174.44-454.48 454.48-4.216 280.028 174.448 458.7 454.48 454.48 280.04 4.216 458.704-174.452 454.48-454.48 4.224-280.04-174.44-458.7-454.48-454.48z m0 812.2c-211.72 2.06-359.78-146.016-357.72-357.728-2.06-211.712 146-359.776 357.72-357.72 211.728-2.06 359.784 146 357.728 357.72 2.052 211.72-146 359.788-357.728 357.732z" fill="#F26A6A" p-id="94163"></path><path d="M602.6 398.608v-1.056l1.06-0.004 47.64-47.64a83.663 83.663 0 0 0-8.536-0.372c-21.344 0.116-42.688 0.204-64.032 0.252-13.256 0.036-24.004 10.736-24.024 23.936-0.016 24.26 0.008 48.516 0 72.776l47.896-47.892z m99.336-24.892l-34.092 34.088a35.508 35.508 0 0 1 10.444 25.388c-0.224 55.6-0.24 111.196-0.036 166.808a35.608 35.608 0 0 1-35.776 35.788c-13.3-0.044-26.6-0.088-39.9-0.116a50269.52 50269.52 0 0 1-0.076-162.528l-47.804 47.804c0 46.18-0.04 92.36-0.008 138.544 0.02 13.204 10.76 23.908 24.012 23.932 21.336 0.048 42.664 0.124 63.992 0.24 46.348 0.28 83.628-37.052 83.376-83.46a16411.57 16411.57 0 0 1 0.064-167.228c0.14-23.224-9.112-44.16-24.196-59.26zM322.652 678.56l41.4-41.4c0.128-20.348 0.292-40.696 0.352-61.048 20.28-0.06 40.552-0.092 60.828-0.132l80.58-80.584c-0.004-18.988 0.04-37.972 0.02-56.96a23.916 23.916 0 0 0-7.032-16.908 172162.33 172162.33 0 0 0-71.136-70.996c-9.44-9.4-24.66-9.52-33.952-0.232a26723.208 26723.208 0 0 0-70.376 70.516 23.888 23.888 0 0 0-6.896 16.98c0.472 80.28 0.268 160.552-0.608 240.836 2.28-0.032 4.548-0.048 6.82-0.068z m88.32-277.32c15.712 15.72 31.384 31.392 47.028 47.032 0 4.676 0.012 9.344 0.02 14.02 0.032 21.928 0.052 43.856 0.052 65.776-31.2 0.012-62.4 0.016-93.596 0.036 0-26.708-0.04-53.412-0.152-80.104a32159.108 32159.108 0 0 1 46.652-46.76z m46.96 216.48c-0.052 19.948-0.088 39.9-0.16 59.848 15.988-0.072 31.984-0.104 47.976-0.128 0.06-35.852 0.024-71.712 0.04-107.568l-47.856 47.848z" fill="#F26A6A" p-id="94164"></path><path d="M853.592 223.052l25.456 25.456L301.22 826.42l-25.456-25.456z" fill="#F26A6A" p-id="94165"></path></svg>