<?xml version="1.0" standalone="no"?><!DOCTYPE svg PUBLIC "-//W3C//DTD SVG 1.1//EN" "http://www.w3.org/Graphics/SVG/1.1/DTD/svg11.dtd"><svg t="1741573364395" class="icon" viewBox="0 0 1385 1024" version="1.1" xmlns="http://www.w3.org/2000/svg" p-id="75994" xmlns:xlink="http://www.w3.org/1999/xlink" width="21.640625" height="16"><path d="M120.470588 0h1139.651765c66.258824 0 120.470588 54.211765 120.470588 120.470588v745.110588c0 66.258824-54.211765 120.470588-120.470588 120.470589H120.470588c-66.258824 0-120.470588-54.211765-120.470588-120.470589V120.470588C0 54.211765 54.211765 0 120.470588 0z" fill="#CF2338" p-id="75995" data-spm-anchor-id="a313x.search_index.0.i42.4c663a81fFkpFF" class=""></path><path d="M131.312941 328.884706l202.390588 121.072941-71.077647 207.209412 164.442353-153.6 164.442353 153.6-70.475294-207.209412L722.823529 328.884706H131.312941z m394.541177 0H328.884706L427.670588 131.915294l98.18353 196.969412z" fill="#FFD128" p-id="75996"></path><path d="M788.48 196.969412v65.65647h65.656471V196.969412h-65.656471z m66.258824 131.915294v65.65647h65.65647V328.884706h-65.65647z m0 131.312941v65.656471h65.65647V460.197647h-65.65647z m-66.258824 131.312941v65.656471h65.656471V591.510588h-65.656471z" fill="#F8B92A" p-id="75997"></path></svg>