<?xml version="1.0" standalone="no"?><!DOCTYPE svg PUBLIC "-//W3C//DTD SVG 1.1//EN" "http://www.w3.org/Graphics/SVG/1.1/DTD/svg11.dtd"><svg t="1741573451462" class="icon" viewBox="0 0 1761 1024" version="1.1" xmlns="http://www.w3.org/2000/svg" p-id="78348" xmlns:xlink="http://www.w3.org/1999/xlink" width="27.515625" height="16"><path d="M0 0h1700.83777v1024H0z" fill="#DE2910" p-id="78349"></path><path d="M168.866566 411.794408l33.087561-102.17713-86.747698-63.432111 107.320274-0.171439L255.95714 144.008036l33.430437 102.005692 107.320275 0.342877-86.747698 63.260673 32.916123 102.17713-86.919137-62.917797zM468.197556 466.997489l36.344885 14.572241 25.201406-29.830236-2.74301 38.916458 36.173447 14.74368-37.887828 9.429097-2.74301 38.916458-20.744015-32.916123-37.887829 9.25766 25.029968-30.001675zM664.322786 270.70082l-38.402143-6.686087-18.343881 34.287628-5.657458-38.573581-38.402143-6.857526 35.144818-17.143814-5.314582-38.745019 27.087225 28.115855 35.144819-17.143814-18.172443 34.630504zM582.718232 445.567721l12.00067-37.202076-31.544618-22.97271h39.087896l12.172108-37.202076 12.172107 37.202076h38.916458l-31.544618 22.97271 12.00067 37.202076-31.544617-22.801272zM470.083375 106.291646l35.487695 16.458061 26.744349-28.630169-4.628829 38.745019 35.316256 16.6295-38.402143 7.543278-4.800268 38.745019-19.029633-34.11619-38.402143 7.37184 26.572911-28.630169z" fill="#FFDE00" p-id="78350"></path></svg>