<?xml version="1.0" standalone="no"?><!DOCTYPE svg PUBLIC "-//W3C//DTD SVG 1.1//EN" "http://www.w3.org/Graphics/SVG/1.1/DTD/svg11.dtd"><svg t="1741572725719" class="icon" viewBox="0 0 1024 1024" version="1.1" xmlns="http://www.w3.org/2000/svg" p-id="46176" xmlns:xlink="http://www.w3.org/1999/xlink" width="16" height="16"><path d="M511.995437 511.995437m-511.995437 0a511.995437 511.995437 0 1 0 1023.990873 0 511.995437 511.995437 0 1 0-1023.990873 0Z" fill="#DC4E41" p-id="46177"></path><path d="M178.255604 534.912841c-1.816234 88.09191 58.858757 172.158899 142.323378 199.575817 78.618287 26.41297 175.280266 6.65344 227.595105-60.674991 38.195674-47.176449 46.875264-110.069253 42.740822-168.827616-67.328431-0.602369-134.656862-0.401579-201.884899-0.301184-0.109522 23.98524 0 47.879212 0.100395 71.864453 40.313092 1.11347 80.635311 0.602369 120.948403 1.414654-10.176386 34.873517-33.358468 67.328431-68.542296 79.92342-67.9308 29.935916-154.608055-9.172438-175.98303-80.434521-25.801474-68.241112 16.437374-150.592262 86.175281-170.44306 43.242796-15.214382 87.790725 1.916629 124.790787 24.395947 18.746455-17.541717 36.288172-36.288172 53.519578-55.235417-42.038058-35.174702-96.059609-56.741339-151.596211-52.004528-108.96491 1.296006-204.321755 101.891637-200.187313 210.747026zM721.94843 444.192412c-0.20079 20.060715-0.410706 40.221824-0.511101 60.273412-20.161109 0.20079-40.212697 0.301185-60.273412 0.401579v60.072622c20.060715 0.100395 40.221824 0.20079 60.273412 0.410706 0.20079 20.060715 0.20079 40.112302 0.401579 60.273412 19.96032 0 40.021034-0.100395 60.072623 0 0.109522-20.161109 0.20079-40.212697 0.410706-60.373807l60.273412-0.301184v-60.072622c-20.051588-0.100395-40.212697-0.20079-60.273412-0.40158-0.109522-20.060715-0.301185-40.221824-0.410706-60.273412l-59.963101-0.009126z" fill="#DC4E41" p-id="46178"></path><path d="M178.255604 534.912841c-4.134442-108.855388 91.213277-209.451019 200.178187-210.756152 55.536601-4.736811 109.567279 16.829826 151.59621 52.004527-17.240532 18.956371-34.782249 37.693699-53.519577 55.235417-37.000062-22.479318-81.547991-39.610328-124.790788-24.395947-69.747034 19.859925-111.985882 102.211075-86.175281 170.44306 21.374974 71.262084 108.05223 110.370438 175.98303 80.434522 35.174702-12.594989 58.36591-45.049903 68.542296-79.923421-40.313092-0.803159-80.635311-0.301185-120.948403-1.414654-0.100395-23.98524-0.20079-47.879212-0.100395-71.864453 67.228036-0.100395 134.556468-0.301185 201.884899 0.301185 4.134442 58.767489-4.536021 121.660294-42.740822 168.827615-52.314839 67.328431-148.967691 87.087961-227.595105 60.674992-83.446367-27.407792-144.130485-111.474781-142.314251-199.566691zM721.94843 444.192412h59.963101c0.109522 20.060715 0.301185 40.221824 0.410706 60.273412 20.051588 0.20079 40.212697 0.301185 60.273412 0.401579v60.072622l-60.273412 0.301185c-0.20079 20.161109-0.301185 40.212697-0.410706 60.373806-20.051588-0.100395-40.121429 0-60.072623 0-0.191663-20.161109-0.191663-40.212697-0.401579-60.273412-20.051588-0.209916-40.212697-0.301185-60.273412-0.410706v-60.072622c20.060715-0.100395 40.121429-0.20079 60.273412-0.401579 0.100395-20.042461 0.301185-40.203571 0.511101-60.264285z" fill="#FFFFFF" p-id="46179"></path></svg>