<?xml version="1.0" standalone="no"?><!DOCTYPE svg PUBLIC "-//W3C//DTD SVG 1.1//EN" "http://www.w3.org/Graphics/SVG/1.1/DTD/svg11.dtd"><svg t="1741572574680" class="icon" viewBox="0 0 1024 1024" version="1.1" xmlns="http://www.w3.org/2000/svg" p-id="42992" xmlns:xlink="http://www.w3.org/1999/xlink" width="16" height="16"><path d="M988.9024 416.7168H949.76V414.72H512v194.56h274.944c-40.192 113.2288-147.9168 194.56-274.944 194.56-161.2032 0-291.84-130.6368-291.84-291.84 0-161.2032 130.6368-291.84 291.84-291.84 74.3936 0 142.1312 28.032 193.6128 73.9072l137.5488-137.5488C756.352 75.5712 640.1536 25.6 512 25.6 243.328 25.6 25.6 243.328 25.6 512s217.728 486.4 486.4 486.4 486.4-217.728 486.4-486.4c0-32.5888-3.328-64.4096-9.4976-95.2832z" fill="#FFC107" p-id="42993"></path><path d="M81.664 285.6192l159.872 117.248C284.7488 295.7568 389.4528 220.16 512 220.16c74.3936 0 142.1312 28.032 193.6128 73.9072l137.5488-137.5488C756.352 75.5712 640.1536 25.6 512 25.6 325.12 25.6 163.1488 131.072 81.664 285.6192z" fill="#FF3D00" p-id="42994"></path><path d="M512 998.4c125.5936 0 239.7696-48.0768 326.144-126.2592l-150.5792-127.3856A289.8432 289.8432 0 0 1 512 803.84c-126.5408 0-233.8816-80.64-274.3552-193.2288l-158.6432 122.1632C159.4624 890.2912 322.9696 998.4 512 998.4z" fill="#4CAF50" p-id="42995"></path><path d="M988.9024 416.7168H949.76V414.72H512v194.56h274.944a293.1456 293.1456 0 0 1-99.4816 135.4752h0.1024l150.5792 127.3856C827.4944 881.7408 998.4 755.2 998.4 512c0-32.5888-3.328-64.4096-9.4976-95.2832z" fill="#1976D2" p-id="42996"></path></svg>