<?xml version="1.0" standalone="no"?><!DOCTYPE svg PUBLIC "-//W3C//DTD SVG 1.1//EN" "http://www.w3.org/Graphics/SVG/1.1/DTD/svg11.dtd"><svg t="1741628778470" class="icon" viewBox="0 0 1024 1024" version="1.1" xmlns="http://www.w3.org/2000/svg" p-id="2395" xmlns:xlink="http://www.w3.org/1999/xlink" width="16" height="16"><path d="M509.269333 513.024m-481.28 0a481.28 481.28 0 1 0 962.56 0 481.28 481.28 0 1 0-962.56 0Z" fill="#48B596" p-id="2396"></path><path d="M689.834667 630.442667L655.36 587.776v-93.525333c0.341333-3.413333 0.682667-73.728 0.682667-73.728 0-72.021333-66.56-131.072-148.138667-131.072s-148.138667 59.050667-148.138667 131.072c0 0-0.341333 41.642667-0.341333 45.056v123.562666l-33.109333 41.301334c-8.874667 15.701333 0 34.816 19.797333 40.96 22.186667 6.826667 51.2 9.216 68.608 9.216h23.552c5.461333 30.378667 35.498667 52.906667 70.314667 52.906666 34.816 0 64.512-22.528 70.314666-52.906666h22.186667c15.701333 0 42.666667-1.024 64.512-5.461334 22.528-5.12 34.816-26.624 24.234667-44.714666z" fill="#FFFFFF" p-id="2397"></path><path d="M739.669333 303.104m-216.746666 0a216.746667 216.746667 0 1 0 433.493333 0 216.746667 216.746667 0 1 0-433.493333 0Z" fill="#9B0000" p-id="2398"></path><path d="M739.669333 279.210667m-233.813333 0a233.813333 233.813333 0 1 0 467.626667 0 233.813333 233.813333 0 1 0-467.626667 0Z" fill="#F90000" p-id="2399"></path></svg>