<?xml version="1.0" standalone="no"?><!DOCTYPE svg PUBLIC "-//W3C//DTD SVG 1.1//EN" "http://www.w3.org/Graphics/SVG/1.1/DTD/svg11.dtd"><svg t="1741579581738" class="icon" viewBox="0 0 1024 1024" version="1.1" xmlns="http://www.w3.org/2000/svg" p-id="5432" xmlns:xlink="http://www.w3.org/1999/xlink" width="16" height="16"><path d="M0 512a512 512 0 1 0 1024 0 512 512 0 1 0-1024 0Z" fill="#F2ECFF" p-id="5433"></path><path d="M546.133333 307.2h-68.266666V273.066667a34.133333 34.133333 0 0 1 68.266666 0z" fill="#BC86F9" p-id="5434"></path><path d="M341.333333 443.733333a170.666667 170.666667 0 0 1 341.333334 0v170.666667H341.333333z" fill="#BC86F9" p-id="5435"></path><path d="M546.167467 332.8q31.778133 0 54.272 22.493867T622.933333 409.6v34.133333q0 2.525867-0.477866 4.983467-0.512 2.491733-1.467734 4.8128-0.955733 2.321067-2.389333 4.437333-1.365333 2.082133-3.1744 3.857067-1.774933 1.809067-3.857067 3.208533-2.116267 1.365333-4.437333 2.3552-2.321067 0.955733-4.778667 1.467734-2.491733 0.477867-5.0176 0.477866t-4.983466-0.477866q-2.491733-0.512-4.8128-1.467734-2.321067-0.955733-4.437334-2.389333-2.082133-1.365333-3.857066-3.1744-1.809067-1.774933-3.208534-3.857067-1.365333-2.116267-2.3552-4.437333-0.955733-2.321067-1.467733-4.778667-0.477867-2.491733-0.477867-5.0176v-34.133333q0-10.581333-7.509333-18.090667-7.509333-7.509333-18.090667-7.509333-2.525867 0-4.983466-0.477867-2.491733-0.512-4.8128-1.467733-2.321067-0.955733-4.437334-2.389333-2.082133-1.365333-3.857066-3.1744-1.809067-1.774933-3.208534-3.857067-1.365333-2.116267-2.3552-4.437333-0.955733-2.321067-1.467733-4.778667-0.477867-2.491733-0.477867-5.0176t0.477867-4.983467q0.512-2.491733 1.467733-4.8128 0.955733-2.321067 2.389334-4.437333 1.365333-2.082133 3.1744-3.857067 1.774933-1.809067 3.857066-3.208533 2.116267-1.365333 4.437334-2.3552 2.321067-0.955733 4.778666-1.467733 2.491733-0.477867 5.0176-0.477867h0.034134z" fill="#FFFFFF" p-id="5436"></path><path d="M614.4 682.666667a102.4 102.4 0 0 1-204.8 0h204.8z" fill="#DBBBFF" p-id="5437"></path><path d="M273.066667 580.266667m68.266666 0l341.333334 0q68.266667 0 68.266666 68.266666l0 0q0 68.266667-68.266666 68.266667l-341.333334 0q-68.266667 0-68.266666-68.266667l0 0q0-68.266667 68.266666-68.266666Z" fill="#BC86F9" p-id="5438"></path></svg>