<?xml version="1.0" standalone="no"?><!DOCTYPE svg PUBLIC "-//W3C//DTD SVG 1.1//EN" "http://www.w3.org/Graphics/SVG/1.1/DTD/svg11.dtd"><svg t="1741572807383" class="icon" viewBox="0 0 1029 1024" version="1.1" xmlns="http://www.w3.org/2000/svg" p-id="54259" xmlns:xlink="http://www.w3.org/1999/xlink" width="16.078125" height="16"><path d="M594.736873 591.127273h-153.6c-25.6 0-48.872727 11.636364-65.163637 30.254545-23.272727 27.927273-41.890909 65.163636-76.8 79.127273-4.654545 4.654545-6.981818 9.309091-6.981818 16.290909 0 2.327273 6.981818 6.981818 11.636364 6.981818 41.890909 11.636364 86.109091 13.963636 128 4.654546 60.509091-6.981818 116.363636-34.909091 153.6-81.454546 9.309091-11.636364 16.290909-25.6 20.945454-39.563636 6.981818-9.309091 0-16.290909-11.636363-16.290909zM96.700509 516.654545c-6.981818-6.981818-11.636364-18.618182-20.945454-27.927272-4.654545-6.981818-9.309091-9.309091-18.618182-2.327273-32.581818 39.563636-41.890909 93.090909-23.272728 139.636364l62.836364-109.381819z m840.145455 11.636364c-11.636364 0-18.618182-6.981818-23.272728-18.618182-30.254545-44.218182-67.490909-88.436364-104.727272-128-69.818182-74.472727-167.563636-116.363636-269.963637-121.018182-55.854545-2.327273-114.036364 2.327273-169.890909 9.309091-23.272727 4.654545-46.545455-6.981818-58.181818-27.927272-4.654545-9.309091-9.309091-16.290909-11.636364-25.6-6.981818-32.581818-16.290909-69.818182-20.945454-100.072728-2.327273-11.636364-4.654545-16.290909-18.618182-9.309091-18.618182 6.981818-32.581818 23.272727-34.909091 41.89091-4.654545 16.290909-6.981818 34.909091-9.309091 51.2 0 39.563636 2.327273 79.127273 6.981818 118.690909 4.654545 20.945455-2.327273 41.890909-18.618181 55.854545-18.618182 20.945455-30.254545 41.890909-46.545455 60.509091C99.027782 509.672727 52.482327 591.127273 22.227782 679.563636c-18.618182 44.218182-25.6 93.090909-20.945455 139.636364 2.327273 16.290909 4.654545 32.581818 4.654546 48.872727 4.654545 23.272727 25.6 41.890909 48.872727 44.218182 23.272727 0 44.218182-9.309091 60.509091-25.6 30.254545-23.272727 65.163636-41.890909 100.072727-58.181818 41.890909-20.945455 81.454545-46.545455 114.036364-79.127273l6.981818-6.981818c-18.618182-4.654545-30.254545-6.981818-46.545455-11.636364-18.618182-4.654545-20.945455-18.618182-6.981818-27.927272 2.327273-4.654545 9.309091-6.981818 11.636364-11.636364 11.636364-11.636364 25.6-23.272727 34.909091-32.581818 11.636364-11.636364 20.945455-25.6 27.927273-39.563637 16.290909-20.945455 41.890909-32.581818 69.818181-32.581818h51.2c11.636364 0 23.272727-4.654545 32.581819-11.636363 23.272727-20.945455 48.872727-41.890909 76.8-60.509091 37.236364-23.272727 79.127273-34.909091 123.345454-30.254546 79.127273 6.981818 132.654545 48.872727 181.527273 107.054546 2.327273 2.327273 2.327273 4.654545 2.327273 6.981818 0 2.327273-4.654545 2.327273-4.654546 2.327273l-55.854545-58.181819c-9.309091 11.636364-16.290909 23.272727-23.272728 30.254546-11.636364 11.636364-23.272727 25.6-32.581818 39.563636-16.290909 23.272727-9.309091 53.527273 11.636364 72.145455 2.327273-2.327273 4.654545-4.654545 4.654545-6.981818 2.327273-11.636364 2.327273-20.945455 16.290909-20.945455 4.654545 0 2.327273-6.981818 11.636364-6.981818 2.327273 0 2.327273 2.327273 6.981818 2.327273 2.327273 0 4.654545-4.654545 6.981818-6.981819 6.981818-2.327273 13.963636-2.327273 20.945455-2.327272 11.636364 0 18.618182-4.654545 18.618182-11.636364 0-4.654545 2.327273-6.981818 4.654545-18.618182 2.327273 16.290909 18.618182 30.254545 34.909091 27.927273h25.6c11.636364 0 23.272727 4.654545 32.581818 9.309091 16.290909 4.654545 30.254545 16.290909 34.909091 32.581818 2.327273 0 4.654545 0 6.981818-4.654545 6.981818-4.654545 11.636364-13.963636 11.636364-25.6 9.309091-55.854545-27.927273-102.4-90.763636-123.345455z m-679.563637 102.4c16.290909 0 18.618182 2.327273 11.636364 18.618182-2.327273 2.327273-2.327273 4.654545-2.327273 9.309091-2.327273 23.272727-16.290909 44.218182-34.909091 55.854545-11.636364 6.981818-20.945455 13.963636-30.254545 23.272728-6.981818 2.327273-16.290909 6.981818-23.272727 4.654545-2.327273-2.327273-4.654545-4.654545-4.654546-9.309091-2.327273-6.981818-2.327273-16.290909 0-25.6 9.309091-39.563636 41.890909-69.818182 83.781818-76.8z m-88.436363 139.636364c4.654545-6.981818 11.636364-13.963636 20.945454-18.618182 4.654545 0 4.654545 2.327273 4.654546 6.981818 0 4.654545-16.290909 18.618182-25.6 16.290909-4.654545 0 0-2.327273 0-4.654545z m148.945454-13.963637c-18.618182 18.618182-41.890909 34.909091-65.163636 46.545455-18.618182 9.309091-34.909091 20.945455-53.527273 27.927273-25.6 16.290909-51.2 30.254545-79.127273 48.872727-18.618182 13.963636-41.890909 20.945455-65.163636 25.6v-4.654546c25.6-9.309091 46.545455-25.6 65.163636-46.545454 13.963636-11.636364 27.927273-20.945455 44.218182-27.927273 30.254545-18.618182 55.854545-41.890909 76.8-72.145454 16.290909-23.272727 16.290909-23.272727 34.909091-9.309091 16.290909 4.654545 23.272727 4.654545 41.890909 11.636363z m370.036364-307.2c23.272727 0 44.218182 2.327273 67.490909 6.981819 13.963636 4.654545 27.927273 11.636364 34.909091 25.6-27.927273-6.981818-41.890909-11.636364-67.490909-16.29091-55.854545-6.981818-109.381818 9.309091-151.272728 46.545455-18.618182 16.290909-37.236364 32.581818-53.527272 48.872727-9.309091 9.309091-9.309091 11.636364-32.581818 11.636364 20.945455-32.581818 39.563636-65.163636 58.181818-97.745455 60.509091-104.727273 214.109091-88.436364 267.636363-25.6 2.327273 2.327273 2.327273 4.654545 4.654546 9.309091-25.6-13.963636-55.854545-23.272727-83.781818-25.6-13.963636 0-27.927273 2.327273-41.890909 4.654546-2.327273 0-9.309091 4.654545-9.309091 9.309091-6.981818 2.327273 2.327273 2.327273 6.981818 2.327272z m321.163636 193.163637c-18.618182-25.6-39.563636-20.945455-65.163636-20.945455h-20.945455c-11.636364 2.327273-23.272727-4.654545-25.6-16.290909-2.327273-2.327273-4.654545-6.981818-6.981818-6.981818s-2.327273 2.327273-4.654545 2.327273c-9.309091 23.272727-27.927273 25.6-51.2 25.6-11.636364-2.327273-23.272727 4.654545-27.927273 16.290909 0 2.327273-6.981818 4.654545-6.981818 4.654545-2.327273-2.327273-4.654545-4.654545-4.654546-9.309091 2.327273-9.309091 6.981818-16.290909 11.636364-25.6 16.290909-20.945455 27.927273-34.909091 44.218182-55.854545 6.981818 9.309091 16.290909 16.290909 25.6 25.6 6.981818 6.981818 11.636364 16.290909 23.272727 20.945454 4.654545 2.327273 11.636364 2.327273 18.618182 0 2.327273-4.654545 2.327273-11.636364 0-18.618181-4.654545-9.309091-11.636364-16.290909-18.618182-25.6-4.654545-4.654545-6.981818-11.636364-16.290909-20.945455 53.527273-6.981818 134.981818 60.509091 125.672727 104.727273z" fill="#366df4" p-id="54260"></path></svg>