<?xml version="1.0" standalone="no"?><!DOCTYPE svg PUBLIC "-//W3C//DTD SVG 1.1//EN" "http://www.w3.org/Graphics/SVG/1.1/DTD/svg11.dtd"><svg t="1741581867831" class="icon" viewBox="0 0 1519 1024" version="1.1" xmlns="http://www.w3.org/2000/svg" p-id="2556" xmlns:xlink="http://www.w3.org/1999/xlink" width="23.734375" height="16"><path d="M140.992 0h1271.424c80.224 0 143.424 63.392 143.424 138.976v746.048c0 78.016-63.2 138.976-140.992 138.976H140.992C63.2 1024 0 960.608 0 885.024V138.976C0 63.392 63.2 0 140.992 0z" fill="#DE2910" p-id="2557"></path><path d="M0 0h1556.48v1024H0V0z" fill="#DE2910" p-id="2558"></path><path d="M858.144 90.208C617.472 75.584 503.2 394.976 734.176 512c-24.32-19.52-41.312-46.336-51.04-80.448-12.16-48.768-4.864-99.968 21.888-141.408l4.864 2.432a179.2 179.2 0 0 0-19.456 136.544c9.728 34.144 29.184 63.392 53.472 82.88-43.744-46.336-24.32-121.92 41.312-151.168 43.744-19.52 77.792-99.968 46.176-151.168-29.184-43.872-21.888-92.64 26.752-119.456z m-116.672 187.744l-14.592 21.952-4.864-26.816-26.752-4.864 24.32-12.192-2.432-26.816 19.456 19.52 24.32-9.76-12.16 24.384 17.024 21.952-24.32-7.328z" fill="#FFFFFF" p-id="2559"></path><path d="M756.064 521.76c24.32-280.384 381.664-275.52 442.432-34.144-38.912-39.008-87.52-31.68-121.536 9.76-36.48 46.336-123.968 36.576-155.584 2.432-55.904-58.528-140.992-46.336-165.312 21.952z" fill="#FFFFFF" p-id="2560"></path><path d="M1011.296 419.36l12.16-24.384-24.32 9.76-19.456-17.056v26.816l-24.32 12.192 26.752 7.328 4.864 26.816 14.592-21.952 29.184 2.432-19.456-21.952z m-51.04-17.088c-48.608-12.192-99.68-2.432-140.992 24.384-36.48 24.384-60.768 58.528-68.064 97.536h7.296c4.864-34.144 29.184-68.256 65.632-92.64 38.912-26.816 89.952-34.144 136.128-21.952v-7.328z" fill="#DE2910" p-id="2561"></path><path d="M756.064 524.192c274.72-63.392 379.232 277.952 170.176 409.6 24.32-51.2 2.432-92.64-46.176-112.16-55.904-21.952-75.36-107.264-51.04-148.736 36.48-68.256-2.432-146.272-72.928-148.736z" fill="#FFFFFF" p-id="2562"></path><path d="M943.232 719.232l9.728-24.384-24.32 9.76-19.456-19.52v26.816l-21.888 14.624 24.32 7.328 7.296 26.816 14.592-24.384 26.752 2.432-17.024-19.52z m-9.728-39.008c-2.432-48.768-26.752-95.072-65.632-126.784-34.048-26.816-75.36-39.008-111.84-34.144v7.328c34.048-4.864 75.36 7.328 106.976 34.144 36.48 29.248 60.768 73.152 63.2 121.92l7.296-2.432z" fill="#DE2910" p-id="2563"></path><path d="M756.064 524.192c145.856 241.376-145.856 448.608-337.92 287.68 55.904 9.76 89.952-26.816 92.384-78.016 2.432-58.528 77.792-104.832 126.4-95.072 75.36 14.624 138.56-46.336 119.136-114.592z" fill="#FFFFFF" p-id="2564"></path><path d="M649.088 719.232l-26.752 9.76-19.456-17.056 2.432 26.816-24.32 12.192 26.752 7.328 4.864 26.816 14.592-21.952 26.752 2.432-17.024-21.952 12.16-24.384z m109.408-197.472l-4.864 2.432c17.024 31.68 17.024 73.152 2.432 112.16-17.024 43.872-51.04 80.448-94.816 97.536l2.432 4.864c46.176-19.52 82.656-56.064 99.68-102.4 12.16-39.008 12.16-80.448-4.864-114.592z" fill="#DE2910" p-id="2565"></path><path d="M753.632 524.192c-184.768 214.56-469.184 0-376.8-231.616 9.728 56.064 53.472 78.016 104.544 63.392 58.336-14.624 123.968 43.872 128.832 90.208 7.296 78.016 85.088 117.024 143.424 78.016z" fill="#FFFFFF" p-id="2566"></path><path d="M517.824 460.8l12.16-24.384-24.32 9.76-21.888-19.52 2.432 29.248-24.32 12.192 26.752 7.328 4.864 26.816 14.592-24.384 26.752 4.864-17.024-21.952z m235.808 60.96c-24.32 24.384-65.632 39.008-106.976 36.576a173.888 173.888 0 0 1-123.968-60.96l-4.864 4.864c31.616 39.008 77.792 60.96 126.4 63.392 43.744 2.432 85.088-12.192 111.84-39.008l-2.432-4.864z" fill="#DE2910" p-id="2567"></path></svg>