<?xml version="1.0" standalone="no"?><!DOCTYPE svg PUBLIC "-//W3C//DTD SVG 1.1//EN" "http://www.w3.org/Graphics/SVG/1.1/DTD/svg11.dtd"><svg t="1741574510170" class="icon" viewBox="0 0 1024 1024" version="1.1" xmlns="http://www.w3.org/2000/svg" p-id="2987" xmlns:xlink="http://www.w3.org/1999/xlink" width="16" height="16"><path d="M0 170.6752h1024v682.6496H0z" fill="#FF0000" p-id="2988"></path><path d="M501.6064 521.3184l-5.6576-5.632 5.6064-5.632 5.632 5.6064z" fill="#FF0000" p-id="2989"></path><path d="M501.5552 515.6864c-52.992-21.4016-78.3104-88.3712-56.192-141.1072 12.1088-28.9024 56.8064-68.6848 111.6928-54.9376-21.1968 10.6496-35.456 25.2928-21.6576 46.1568 15.1552 22.912 8.0384 57.3952-21.4016 71.1936-22.8864 10.7776-43.008 50.7136-12.4416 78.6944z" fill="#FFFFFF" p-id="2990"></path><path d="M500.7104 516.7104c-11.1616-9.088-29.056-18.7648-33.5104-55.1168l-0.6912-11.648c0-29.3376 14.2592-46.1312 14.3616-46.2336l1.8432-0.1792 0.1536 1.8688c0.0512 0-3.4048 3.9168-6.8608 11.52a80.384 80.384 0 0 0-6.8864 32.9984l0.6912 11.2896c4.5056 35.584 21.0432 44.0064 32.5888 53.4016l0.2048 1.8688-1.0496 0.4864-0.8448-0.256zM484.7872 372.5824l9.1136 8.0896 10.5472-6.1696-4.8896 11.1616 9.088 8.1408-12.1088-1.2032-4.9408 11.1616-2.5856-11.8784-12.1088-1.2544 10.496-6.144z" fill="#FF0000" p-id="2991"></path><path d="M501.5552 515.6864c4.1472-57.0624 60.1088-101.6832 117.0432-96.7936 31.2064 2.6368 82.7904 32.9472 86.5536 89.4464-16.5888-16.9472-34.944-26.0352-50.56-6.4512-17.1008 21.4016-52.096 25.216-74.2912 1.5104-17.3056-18.5856-61.4912-25.4208-78.7456 12.288z" fill="#FFFFFF" p-id="2992"></path><path d="M500.352 515.2c5.1968-13.4656 8.96-33.4848 42.2144-48.8192l10.8032-4.2752c27.9552-9.0112 48.3072-0.5632 48.4608-0.512l0.6912 1.6896-1.7152 0.6912c-0.0512 0.0256-4.7872-1.9968-13.1072-2.9696a80.2816 80.2816 0 0 0-33.5616 3.584l-10.496 4.1216c-32.4608 15.1808-35.456 33.5616-40.8576 47.4112l-1.6896 0.7424-0.7936-0.7936 0.0512-0.8704zM632.6016 455.808l-4.9152 11.1104 9.1136 8.1664-12.1088-1.2032-4.9408 11.1104-2.56-11.904-12.1856-1.2032 10.5984-6.1952-2.6112-11.8784 9.1136 8.1152z" fill="#FF0000" p-id="2993"></path><path d="M501.5552 515.6864c55.552-13.568 115.2 25.9584 128.1024 81.6384 6.9888 30.5408-6.0416 88.9088-58.6496 109.8496 11.0592-20.992 14.0544-41.1904-9.344-50.0736-25.6512-9.728-39.9872-41.9072-24.192-70.2976 12.3392-22.1696 5.2224-66.304-35.9168-71.1168z" fill="#FFFFFF" p-id="2994"></path><path d="M501.6576 514.3808c14.4128 0.7936 34.6112-1.792 59.392 25.1392l7.3472 8.9856c17.2032 23.8848 15.4112 45.7984 15.4112 45.9776l-1.4592 1.2032-1.152-1.408c-0.0512 0 0.4096-5.248-1.2544-13.3632a80.1792 80.1792 0 0 0-13.6448-30.8736l-7.1424-8.7296c-24.3968-26.2656-42.8032-23.3984-57.6512-24.32l-1.2544-1.3824 0.5888-0.9984 0.8192-0.2304zM598.7584 622.0288l-12.1088-1.2544-4.9408 11.1616-2.56-11.9296-12.16-1.28 10.5472-6.0928-2.5344-11.9296 9.088 8.1664 10.5472-6.144-4.9408 11.136z" fill="#FF0000" p-id="2995"></path><path d="M501.5552 515.6864c30.0544 48.6912 10.6496 117.6064-38.4512 146.9184-26.8544 16.0768-86.4512 21.5808-122.496-22.0672 23.3984 4.0448 43.5456 0.6912 44.8-24.2944 1.408-27.3408 27.5968-50.9184 59.4432-44.5952 24.9088 4.9152 64.7424-15.36 56.704-55.9616z" fill="#FFFFFF" p-id="2996"></path><path d="M502.8608 515.328c3.6608 13.9776 12.288 32.384-5.76 64.2816l-6.2976 9.7792c-17.408 23.6288-38.8608 28.6976-38.9888 28.7232l-1.6128-0.9728 0.9984-1.5616c0-0.0512 5.0432-1.1776 12.3392-5.2736 7.296-4.0704 16.6912-11.0336 25.1392-22.5024l6.0928-9.472c17.5616-31.2576 9.1904-47.9232 5.504-62.336l0.9984-1.5872 1.0496 0.2048 0.5376 0.7168zM430.1568 640.8192l-2.5088-12.0064-12.16-1.2032 10.5984-6.1184-2.5344-11.904 9.0368 8.1408 10.5984-6.0416-4.992 11.1104 9.0624 8.1664-12.16-1.3312z" fill="#FF0000" p-id="2997"></path><path d="M501.5552 515.6864c-37.1456 43.4432-108.6464 46.1568-151.6032 8.4224-23.552-20.608-47.0528-75.6224-16.5888-123.3152 3.3536 23.5008 12.6976 41.6512 36.8384 35.2 26.496-7.0912 56.96 10.624 60.6976 42.9312 2.944 25.1392 34.4576 56.8064 70.656 36.7616z" fill="#FFFFFF" p-id="2998"></path><path d="M502.2464 516.7872c-12.1088 7.7312-27.008 21.632-62.8992 14.2336l-11.2384-2.9952c-27.8016-9.3184-39.1936-28.16-39.296-28.2624v-0.0512l0.4608-1.792 1.792 0.4608c0.0512 0 2.688 4.4544 8.7552 10.1376 6.144 5.6832 15.6416 12.4928 29.1584 17.0496l10.9056 2.8416c35.1488 7.0656 48.4608-5.9392 61.056-13.9008l1.792 0.4608 0.1024 1.1264-0.5888 0.6912zM360.5504 486.0928l10.5984-6.0672-2.5088-11.9552 9.0624 8.192 10.5984-6.0416-5.0432 11.1104 9.0368 8.192-12.0832-1.3312-5.0688 11.1872-2.432-11.9808z" fill="#FF0000" p-id="2999"></path></svg>