<?xml version="1.0" standalone="no"?><!DOCTYPE svg PUBLIC "-//W3C//DTD SVG 1.1//EN" "http://www.w3.org/Graphics/SVG/1.1/DTD/svg11.dtd"><svg t="1741572417616" class="icon" viewBox="0 0 1024 1024" version="1.1" xmlns="http://www.w3.org/2000/svg" p-id="38372" xmlns:xlink="http://www.w3.org/1999/xlink" width="16" height="16"><path d="M230.009203 0.191983l202.637889 574.252676v-0.287974l16.030567 45.211959c89.080038 252.041474 136.94776 387.165397 137.203738 387.453371 0.159986 0 13.662779 0.863923 29.949323 1.695849 49.307593 2.143808 110.486125 7.679314 156.817985 13.214819 10.655048 1.279886 19.870224 1.695848 20.478169 1.279885l-200.942041-569.965059-18.590338-52.47531-103.38276-292.229882c-19.614247-55.451044-36.25276-102.742817-37.116683-104.534657l-1.311883-3.80766h-201.581983z m362.975559 0.351968l-0.415963 226.379768-0.351968 226.379767-18.654333-52.571301v-0.095992l-24.093847 503.858968c23.677884 66.842026 36.348751 102.518837 36.47674 102.678823 0.159986 0.159986 13.662779 1.023908 29.949323 1.79184 49.371587 2.143808 110.486125 7.679314 157.009968 13.214819 10.655048 1.279886 19.934218 1.695848 20.478169 1.279885s0.863923-231.243333 0.735935-512.370207L793.766817 0.44796h-200.782055zM230.009203 0.127989V511.66627c0 281.318857 0.287974 511.730264 0.639943 512.082232s17.758413-1.279886 38.684542-3.679671c20.894133-2.559771 49.915539-5.535505 64.410244-6.815391a2579.929419 2579.929419 0 0 1 95.895429-6.399428c2.207803 0 2.399786-11.51897 2.68776-216.716631l0.351968-216.71663 16.22255 45.211959 5.535506 16.030567 24.317826-503.411008-8.095276-23.293918L433.127049 3.871654l-1.279885-3.711668H230.009203z" fill="#E50914" p-id="38373"></path></svg>