<?xml version="1.0" standalone="no"?><!DOCTYPE svg PUBLIC "-//W3C//DTD SVG 1.1//EN" "http://www.w3.org/Graphics/SVG/1.1/DTD/svg11.dtd"><svg t="1741572982014" class="icon" viewBox="0 0 1024 1024" version="1.1" xmlns="http://www.w3.org/2000/svg" p-id="62706" xmlns:xlink="http://www.w3.org/1999/xlink" width="16" height="16"><path d="M630.357333 605.525333l4.394667 69.674667 155.818667-1.450667c24.448 37.973333 48.426667 80.042667 50.432 115.498667 1.92 34.56-12.501333 98.816-65.365334 106.368l-7.082666 0.682667-124.586667 9.685333-8.149333 77.525333-116.48-182.869333 111.018666-195.114667zM167.253333 859.605333L35.413333 615.893333c38.570667 42.837333 88.32 52.992 128.128 52.053334l7.338667-0.298667 263.850667 1.792v230.698667H295.594667c-48.512 1.152-95.488-5.76-123.050667-34.517334l-5.248-6.016-131.84-243.712 131.84 243.712zM890.453333 342.869333l73.685334 117.973334c26.666667 40.576 45.696 84.053333 35.882666 122.666666l-2.346666 7.68-136.746667 240.981334c15.957333-55.381333-1.834667-102.954667-23.808-136.32l-4.181333-6.058667-138.197334-224.64 195.712-122.282667z m-647.168 0.085334l106.581334 197.546666-61.44-33.28-81.28 132.906667h-22.741334c-38.058667-0.512-75.946667-4.266667-101.930666-18.474667-30.378667-16.64-77.397333-63.146667-55.509334-112.042666l60.885334-116.821334L26.410667 344.746667l216.874666-1.834667zM346.666667 40.490667l277.077333 2.773333c-56.192 12.928-89.130667 51.541333-107.648 86.869333l-3.328 6.570667L383.274667 366.506667l-201.813334-111.786667 67.456-121.728C271.488 89.941333 300.373333 52.309333 338.858667 42.154667l7.808-1.664z m249.301333 41.130666c29.184-18.56 92.458667-37.034667 124.672 5.504l4.010667 5.888 68.821333 104.277334 71.765333-30.464-103.509333 190.506666-224.426667-2.517333 58.922667-37.632-76.842667-135.509333 11.008-19.925334c18.901333-33.024 40.533333-64.341333 65.578667-80.128z" fill="#2CAA5A" p-id="62707"></path></svg>