<?xml version="1.0" standalone="no"?><!DOCTYPE svg PUBLIC "-//W3C//DTD SVG 1.1//EN" "http://www.w3.org/Graphics/SVG/1.1/DTD/svg11.dtd"><svg t="1741573417958" class="icon" viewBox="0 0 1519 1024" version="1.1" xmlns="http://www.w3.org/2000/svg" p-id="77163" xmlns:xlink="http://www.w3.org/1999/xlink" width="23.734375" height="16"><path d="M1583.912649 511.803153H0v511.803152h1583.912649z" fill="#FFFFFF" p-id="77164"></path><path d="M1583.912649 0H0v511.803153h1583.912649z" fill="#ED2939" p-id="77165"></path><path d="M392.198693 203.225221a60.077816 60.077816 0 0 1-12.75571 11.417147c-4.409381 3.385775-8.897501 6.69281-13.700576 10.236063l10.944713 33.936486a26.14133 26.14133 0 0 1-9.921107-6.220376c-3.149558-2.125952-6.062899-4.645598-9.054979-6.929028l-9.369934-7.243983-26.771242 20.94456a7.165244 7.165244 0 0 0-1.259823-0.866128c3.385775-10.944714 6.850288-21.889427 10.393541-33.385314l-27.007459-19.999692 0.472434-1.574779h33.070357c3.307036-11.102191 6.614072-22.046905 9.921107-32.991619h1.417301c4.330642 10.629758 6.377855 22.125644 10.629758 32.834141z" fill="#D9322B" p-id="77166"></path><path d="M291.334102 440.938101a185.981392 185.981392 0 0 1-104.092887-61.022684 187.949865 187.949865 0 0 1-15.747789-226.531949 185.902653 185.902653 0 0 1 185.823913-83.227067C283.460208 111.021915 241.492349 171.808381 241.571088 256.531488S283.460208 401.568627 357.711034 442.51288A169.288735 169.288735 0 0 1 291.334102 440.938101z" fill="#D9322B" p-id="77167"></path><path d="M429.75717 329.837447l-19.133564 14.409227c-6.614072 4.881815-5.354248 3.621992-3.228297 10.708497s4.881815 14.724183 7.243984 22.125644a9.212457 9.212457 0 0 1 0 5.354248L387.868051 362.199154l-26.849981 20.472126-1.181084-0.866128c3.464514-10.944714 6.850288-21.968166 10.47228-33.385313l-27.401154-20.23591a21.968166 21.968166 0 0 1 11.417148-1.259823h22.36186c3.385775-11.338408 6.69281-22.361861 9.921108-33.306574h1.417301c4.251903 10.708497 6.456594 22.204383 10.551018 32.991618h33.857748a19.920953 19.920953 0 0 1-2.677125 3.228297zM426.450135 181.099577l-1.259824-0.944867c2.677124-11.023453 6.929027-21.731949 10.078586-33.385314L408.025221 125.982314a20.314648 20.314648 0 0 1 11.417147-1.338562h22.598078c3.385775-11.259669 6.771549-22.361861 10.078585-33.464052h1.417301c3.307036 10.787236 6.69281 21.574471 10.157324 32.91288h34.330181a70.313879 70.313879 0 0 1-13.858055 11.653364c-4.330642 3.464514-8.818762 6.771549-13.543098 10.314802 3.543253 11.18093 7.086505 22.125644 10.629757 32.991618L480.307574 181.099577l-26.849981-20.787082zM549.991542 337.86882c-4.330642 3.464514-8.818762 6.771549-13.700577 10.393541 3.621992 11.18093 7.165244 22.283122 10.787236 33.385313l-1.181085 0.866128-27.007458-20.787082-26.535025 20.787082-1.181084-0.629911a138.108112 138.108112 0 0 1 4.881814-16.613918c1.653518-5.511726 3.385775-11.023453 5.27551-16.850134l-27.952326-20.550866a65.03837 65.03837 0 0 1 17.558785-0.944867h16.850134c3.307036-11.102191 6.614072-22.283122 9.999847-33.385313H519.677047c3.385775 11.023453 6.850288 22.046905 10.236063 33.070357h34.723876a125.431142 125.431142 0 0 1-14.645444 11.25967zM597.864821 208.028297c-6.377855 4.803076-12.755709 9.68489-19.212303 14.330488a5.039293 5.039293 0 0 0-2.125951 6.614072c2.913341 8.267589 5.511726 16.692657 7.873894 25.038985a7.873895 7.873895 0 0 1 0 5.118031l-26.84998-20.787082-26.613764 20.94456-1.338562-1.023606 4.724336-15.196617c1.417301-4.409381 2.834602-8.740023 4.173165-13.149404s1.49604-4.803076-2.677125-7.873895c-6.456594-4.803076-12.913187-9.448674-19.291042-14.251749a12.047059 12.047059 0 0 1-3.149557-3.621992c10.944714-0.944867 21.810688-0.393695 33.149096-0.70865 3.307036-11.023453 6.535333-22.046905 10.236063-34.40892a80.156248 80.156248 0 0 1 6.377855 17.795002c1.889735 5.432987 3.385775 10.944714 5.039292 16.535179h33.149097l0.472434 1.102345c-1.023606 1.181084-2.440907 2.440907-3.936948 3.543253z" fill="#D9322B" p-id="77168"></path><path d="M357.317339 70.156401C283.460208 111.021915 241.492349 171.808381 241.571088 256.531488S283.460208 401.568627 357.711034 442.51288A169.288735 169.288735 0 0 1 291.334102 440.938101a185.981392 185.981392 0 0 1-104.092887-61.022684 187.949865 187.949865 0 0 1-15.747789-226.531949 185.902653 185.902653 0 0 1 185.823913-83.227067zM480.307574 181.099577l-26.849981-20.787082L426.450135 181.099577l-1.259824-0.944867c2.677124-11.023453 6.929027-21.731949 10.078586-33.385314L408.025221 125.982314a19.605998 19.605998 0 0 1 11.417147-1.259823h22.598078c3.385775-11.259669 6.771549-22.361861 10.078585-33.464052h1.417301c3.307036 10.787236 6.69281 21.574471 10.157324 32.91288h34.330181a70.313879 70.313879 0 0 1-13.858055 11.653364c-4.330642 3.464514-8.818762 6.771549-13.543098 10.314802 3.543253 11.18093 7.086505 22.125644 10.629757 32.991618z" fill="#FFFFFF" p-id="77169"></path><path d="M359.836986 381.805152c3.464514-10.944714 6.850288-21.968166 10.47228-33.385313l-27.401154-20.23591a21.968166 21.968166 0 0 1 11.417148-1.259823h22.36186c3.385775-11.338408 6.69281-22.361861 9.921108-33.306574h1.417301c4.251903 10.708497 6.456594 22.204383 10.551018 32.991618h33.857748a19.920953 19.920953 0 0 1-2.755864 3.385775l-19.133564 14.409227c-6.614072 4.881815-5.354248 3.621992-3.228296 10.708497s4.881815 14.724183 7.243983 22.125644a9.212457 9.212457 0 0 1 0 5.354248L387.868051 362.199154l-26.849981 20.472126zM529.991849 258.263745l4.724337-15.196617c1.417301-4.409381 2.834602-8.740023 4.173164-13.149404s1.49604-4.803076-2.677124-7.873895c-6.456594-4.803076-12.913187-9.448674-19.291042-14.251749a12.047059 12.047059 0 0 1-3.149558-3.621992c10.944714-0.944867 21.810688-0.393695 33.149097-0.70865 3.307036-11.023453 6.535333-22.046905 10.236063-34.40892a80.156248 80.156248 0 0 1 6.377855 17.795002c1.889735 5.432987 3.385775 10.944714 5.039292 16.535179h33.149097l0.472433 1.102345c-1.417301 1.181084-2.834602 2.440907-4.330642 3.543253-6.377855 4.803076-12.755709 9.68489-19.212303 14.330488a5.039293 5.039293 0 0 0-2.125951 6.614072c2.913341 8.267589 5.511726 16.692657 7.873894 25.038985a7.873895 7.873895 0 0 1 0 5.118031l-26.84998-20.787082-26.613764 20.94456zM304.168551 203.540177h33.070357c3.307036-11.102191 6.614072-22.046905 9.921107-32.991619h1.417301c4.330642 10.629758 6.377855 22.125644 10.629758 32.834141h32.991619a60.077816 60.077816 0 0 1-12.75571 11.417147c-4.409381 3.385775-8.897501 6.69281-13.700576 10.236063l10.944713 33.936486a26.14133 26.14133 0 0 1-9.921107-6.220377c-3.149558-2.125952-6.062899-4.645598-9.054979-6.929027l-9.369934-7.243983-26.771242 20.94456a7.165244 7.165244 0 0 0-1.259823-0.866129c3.385775-10.944714 6.850288-21.889427 10.393541-33.385313l-27.007459-19.999692zM501.330873 348.419839l-27.952326-20.550866a65.03837 65.03837 0 0 1 17.558785-0.944867h16.850134c3.307036-11.102191 6.614072-22.283122 9.999847-33.385313H519.677047c3.385775 11.023453 6.850288 22.046905 10.236063 33.070357h34.723876a125.431142 125.431142 0 0 1-14.25175 11.417148c-4.330642 3.464514-8.818762 6.771549-13.700576 10.393541 3.621992 11.18093 7.165244 22.283122 10.787235 33.385313l-1.181084 0.866128-27.401153-20.94456-26.535025 20.787082-1.181084-0.629911a138.108112 138.108112 0 0 1 4.881814-16.613918c1.653518-5.511726 3.385775-10.944714 5.27551-16.850134z" fill="#FFFFFF" p-id="77170"></path></svg>