<?xml version="1.0" standalone="no"?><!DOCTYPE svg PUBLIC "-//W3C//DTD SVG 1.1//EN" "http://www.w3.org/Graphics/SVG/1.1/DTD/svg11.dtd"><svg t="1741571693565" class="icon" viewBox="0 0 1024 1024" version="1.1" xmlns="http://www.w3.org/2000/svg" p-id="20185" xmlns:xlink="http://www.w3.org/1999/xlink" width="16" height="16"><path d="M512 512m-512 0a512 512 0 1 0 1024 0 512 512 0 1 0-1024 0Z" fill="#403E78" p-id="20186"></path><path d="M414.418824 725.564235l8.734117-126.494117 231.30353-206.667294c9.938824-9.246118-2.409412-13.763765-15.962353-5.571765l-285.214118 178.898823-123.482353-38.912c-26.503529-7.318588-26.804706-25.6 6.023529-38.731294l480.677648-184.048941c21.985882-9.908706 43.068235 5.360941 34.635294 38.912l-81.92 382.494118a27.346824 27.346824 0 0 1-45.176471 21.293176l-124.385882-91.407059-59.934118 57.645177a32.376471 32.376471 0 0 1-25.298823 12.468706z" fill="#7573B2" p-id="20187"></path></svg>