<?xml version="1.0" standalone="no"?><!DOCTYPE svg PUBLIC "-//W3C//DTD SVG 1.1//EN" "http://www.w3.org/Graphics/SVG/1.1/DTD/svg11.dtd"><svg t="1741572303159" class="icon" viewBox="0 0 1024 1024" version="1.1" xmlns="http://www.w3.org/2000/svg" p-id="34881" xmlns:xlink="http://www.w3.org/1999/xlink" width="16" height="16"><path d="M1002.906 266.188c-11.804-43.868-46.39-78.446-90.25-90.26C832.524 154 511.992 154 511.992 154S191.468 154 111.336 175.094C68.32 186.898 32.89 222.328 21.086 266.188 0 346.312 0 512.484 0 512.484s0 167.008 21.086 246.298c11.812 43.86 46.39 78.444 90.258 90.258C192.312 870.968 512 870.968 512 870.968s320.524 0 400.656-21.092c43.868-11.806 78.446-46.392 90.258-90.25C1024 679.49 1024 513.326 1024 513.326s0.844-167.016-21.094-247.14z m0 0" fill="#FF0000" p-id="34882"></path><path d="M409.938 666l266.54-153.516-266.54-153.516z m0 0" fill="#FFFFFF" p-id="34883"></path></svg>